<mxfile host="app.diagrams.net" modified="2024-11-05T17:14:23.173Z" agent="Mozilla/5.0 (Windows NT 10.0; Win64; x64) AppleWebKit/537.36 (KHTML, like Gecko) Chrome/129.0.0.0 Safari/537.36" etag="7CgWHafW8NioiUL15FGr" version="23.1.5" type="device">
  <diagram name="Page-1" id="VllstWXRRn4wCHItSRXa">
    <mxGraphModel dx="933" dy="1341" grid="1" gridSize="10" guides="1" tooltips="1" connect="1" arrows="1" fold="1" page="1" pageScale="1" pageWidth="827" pageHeight="1169" math="0" shadow="0">
      <root>
        <mxCell id="0" />
        <mxCell id="1" parent="0" />
        <mxCell id="C9zfe58r3XErGKjpOcmI-8" value="" style="group" parent="1" vertex="1" connectable="0">
          <mxGeometry x="40" y="60" width="250" height="330" as="geometry" />
        </mxCell>
        <mxCell id="C9zfe58r3XErGKjpOcmI-1" value="" style="rounded=1;whiteSpace=wrap;html=1;" parent="C9zfe58r3XErGKjpOcmI-8" vertex="1">
          <mxGeometry width="250" height="307.24137931034477" as="geometry" />
        </mxCell>
        <mxCell id="C9zfe58r3XErGKjpOcmI-6" style="edgeStyle=orthogonalEdgeStyle;rounded=0;orthogonalLoop=1;jettySize=auto;html=1;exitX=0.5;exitY=1;exitDx=0;exitDy=0;entryX=0.5;entryY=0.978;entryDx=0;entryDy=0;entryPerimeter=0;" parent="C9zfe58r3XErGKjpOcmI-8" source="C9zfe58r3XErGKjpOcmI-1" target="C9zfe58r3XErGKjpOcmI-1" edge="1">
          <mxGeometry relative="1" as="geometry" />
        </mxCell>
        <mxCell id="C9zfe58r3XErGKjpOcmI-7" value="&lt;h1&gt;Stocks&lt;/h1&gt;&lt;p&gt;- ProductName&lt;/p&gt;&lt;p&gt;- ProductID&lt;/p&gt;&lt;p&gt;- type&lt;/p&gt;&lt;p&gt;- brand&lt;/p&gt;&lt;p&gt;- price&lt;/p&gt;&lt;p&gt;- package quantity&lt;/p&gt;&lt;p&gt;- current quantity&lt;/p&gt;&lt;p&gt;- measurement units&lt;/p&gt;" style="text;html=1;strokeColor=none;fillColor=none;spacing=5;spacingTop=-20;whiteSpace=wrap;overflow=hidden;rounded=0;" parent="C9zfe58r3XErGKjpOcmI-8" vertex="1">
          <mxGeometry x="20" y="22.758620689655167" width="210" height="307.24137931034477" as="geometry" />
        </mxCell>
        <mxCell id="C9zfe58r3XErGKjpOcmI-13" value="" style="group" parent="1" vertex="1" connectable="0">
          <mxGeometry x="1040" y="660" width="250" height="315" as="geometry" />
        </mxCell>
        <mxCell id="C9zfe58r3XErGKjpOcmI-14" value="" style="rounded=1;whiteSpace=wrap;html=1;" parent="C9zfe58r3XErGKjpOcmI-13" vertex="1">
          <mxGeometry width="250" height="293.2758620689655" as="geometry" />
        </mxCell>
        <mxCell id="C9zfe58r3XErGKjpOcmI-15" style="edgeStyle=orthogonalEdgeStyle;rounded=0;orthogonalLoop=1;jettySize=auto;html=1;exitX=0.5;exitY=1;exitDx=0;exitDy=0;entryX=0.5;entryY=0.978;entryDx=0;entryDy=0;entryPerimeter=0;" parent="C9zfe58r3XErGKjpOcmI-13" source="C9zfe58r3XErGKjpOcmI-14" target="C9zfe58r3XErGKjpOcmI-14" edge="1">
          <mxGeometry relative="1" as="geometry" />
        </mxCell>
        <mxCell id="C9zfe58r3XErGKjpOcmI-16" value="&lt;h1&gt;Flavours&lt;/h1&gt;&lt;p&gt;- ID&lt;/p&gt;&lt;p&gt;- name&lt;/p&gt;&lt;p&gt;- flavourCategoryID&lt;/p&gt;&lt;p&gt;- price&lt;/p&gt;" style="text;html=1;strokeColor=none;fillColor=none;spacing=5;spacingTop=-20;whiteSpace=wrap;overflow=hidden;rounded=0;" parent="C9zfe58r3XErGKjpOcmI-13" vertex="1">
          <mxGeometry x="20" y="21.724137931034484" width="210" height="293.2758620689655" as="geometry" />
        </mxCell>
        <mxCell id="C9zfe58r3XErGKjpOcmI-17" value="" style="group" parent="1" vertex="1" connectable="0">
          <mxGeometry x="90" y="600" width="250" height="340" as="geometry" />
        </mxCell>
        <mxCell id="C9zfe58r3XErGKjpOcmI-18" value="" style="rounded=1;whiteSpace=wrap;html=1;" parent="C9zfe58r3XErGKjpOcmI-17" vertex="1">
          <mxGeometry width="250" height="340" as="geometry" />
        </mxCell>
        <mxCell id="C9zfe58r3XErGKjpOcmI-19" style="edgeStyle=orthogonalEdgeStyle;rounded=0;orthogonalLoop=1;jettySize=auto;html=1;exitX=0.5;exitY=1;exitDx=0;exitDy=0;entryX=0.5;entryY=0.978;entryDx=0;entryDy=0;entryPerimeter=0;" parent="C9zfe58r3XErGKjpOcmI-17" source="C9zfe58r3XErGKjpOcmI-18" target="C9zfe58r3XErGKjpOcmI-18" edge="1">
          <mxGeometry relative="1" as="geometry" />
        </mxCell>
        <mxCell id="C9zfe58r3XErGKjpOcmI-20" value="&lt;h1&gt;Orders&lt;/h1&gt;&lt;p&gt;- ID&lt;/p&gt;&lt;p&gt;- OrderDate&lt;/p&gt;&lt;p&gt;- OrderStatusID&lt;/p&gt;&lt;p&gt;- customerID&lt;/p&gt;&lt;p&gt;- payment date&lt;/p&gt;&lt;p&gt;- delivery option&lt;/p&gt;&lt;p&gt;- delivery date&lt;/p&gt;&lt;p&gt;- delivery address&lt;/p&gt;" style="text;html=1;strokeColor=none;fillColor=none;spacing=5;spacingTop=-20;whiteSpace=wrap;overflow=hidden;rounded=0;" parent="C9zfe58r3XErGKjpOcmI-17" vertex="1">
          <mxGeometry x="20" y="21.25" width="210" height="318.75" as="geometry" />
        </mxCell>
        <mxCell id="C9zfe58r3XErGKjpOcmI-26" value="" style="group" parent="1" vertex="1" connectable="0">
          <mxGeometry x="630" y="800" width="250" height="150" as="geometry" />
        </mxCell>
        <mxCell id="C9zfe58r3XErGKjpOcmI-27" value="" style="rounded=1;whiteSpace=wrap;html=1;" parent="C9zfe58r3XErGKjpOcmI-26" vertex="1">
          <mxGeometry width="250" height="150" as="geometry" />
        </mxCell>
        <mxCell id="C9zfe58r3XErGKjpOcmI-28" style="edgeStyle=orthogonalEdgeStyle;rounded=0;orthogonalLoop=1;jettySize=auto;html=1;exitX=0.5;exitY=1;exitDx=0;exitDy=0;entryX=0.5;entryY=0.978;entryDx=0;entryDy=0;entryPerimeter=0;" parent="C9zfe58r3XErGKjpOcmI-26" source="C9zfe58r3XErGKjpOcmI-27" target="C9zfe58r3XErGKjpOcmI-27" edge="1">
          <mxGeometry relative="1" as="geometry" />
        </mxCell>
        <mxCell id="C9zfe58r3XErGKjpOcmI-29" value="&lt;h1&gt;Order Flavours&lt;/h1&gt;&lt;p&gt;- OrderItemID&lt;/p&gt;&lt;p&gt;- FlavourID&lt;/p&gt;" style="text;html=1;strokeColor=none;fillColor=none;spacing=5;spacingTop=-20;whiteSpace=wrap;overflow=hidden;rounded=0;" parent="C9zfe58r3XErGKjpOcmI-26" vertex="1">
          <mxGeometry x="20" y="7.119512195121953" width="210" height="139.22195121951222" as="geometry" />
        </mxCell>
        <mxCell id="C9zfe58r3XErGKjpOcmI-9" value="" style="group" parent="1" vertex="1" connectable="0">
          <mxGeometry x="920" y="40" width="250" height="290" as="geometry" />
        </mxCell>
        <mxCell id="C9zfe58r3XErGKjpOcmI-10" value="" style="rounded=1;whiteSpace=wrap;html=1;" parent="C9zfe58r3XErGKjpOcmI-9" vertex="1">
          <mxGeometry width="250" height="270" as="geometry" />
        </mxCell>
        <mxCell id="C9zfe58r3XErGKjpOcmI-11" style="edgeStyle=orthogonalEdgeStyle;rounded=0;orthogonalLoop=1;jettySize=auto;html=1;exitX=0.5;exitY=1;exitDx=0;exitDy=0;entryX=0.5;entryY=0.978;entryDx=0;entryDy=0;entryPerimeter=0;" parent="C9zfe58r3XErGKjpOcmI-9" source="C9zfe58r3XErGKjpOcmI-10" target="C9zfe58r3XErGKjpOcmI-10" edge="1">
          <mxGeometry relative="1" as="geometry" />
        </mxCell>
        <mxCell id="C9zfe58r3XErGKjpOcmI-12" value="&lt;h1&gt;Products&lt;/h1&gt;&lt;p&gt;- id INT PRI&lt;/p&gt;&lt;p&gt;- name TINYTEXT&lt;/p&gt;&lt;p&gt;- description TINYTEXT&lt;/p&gt;&lt;p&gt;- productCatergoryID&lt;/p&gt;&lt;p&gt;- net weight&lt;/p&gt;&lt;p&gt;- price&lt;/p&gt;" style="text;html=1;strokeColor=none;fillColor=none;spacing=5;spacingTop=-20;whiteSpace=wrap;overflow=hidden;rounded=0;" parent="C9zfe58r3XErGKjpOcmI-9" vertex="1">
          <mxGeometry x="18.51851851851852" y="20" width="194.44444444444446" height="270" as="geometry" />
        </mxCell>
        <mxCell id="0n4ScGVHsQ4rE3W0SoDz-6" value="" style="group" parent="1" vertex="1" connectable="0">
          <mxGeometry x="320" y="50" width="250" height="320" as="geometry" />
        </mxCell>
        <mxCell id="C9zfe58r3XErGKjpOcmI-22" value="" style="rounded=1;whiteSpace=wrap;html=1;" parent="0n4ScGVHsQ4rE3W0SoDz-6" vertex="1">
          <mxGeometry width="250" height="320" as="geometry" />
        </mxCell>
        <mxCell id="C9zfe58r3XErGKjpOcmI-24" value="&lt;h1&gt;Customers&lt;/h1&gt;&lt;p&gt;- order date&lt;/p&gt;&lt;p&gt;- customer name&lt;/p&gt;&lt;p&gt;- total price&lt;/p&gt;&lt;p&gt;- payment date&lt;/p&gt;&lt;p&gt;- delivery option&lt;/p&gt;&lt;p&gt;- delivery date&lt;/p&gt;&lt;p&gt;- delivery address&lt;/p&gt;&lt;p&gt;- product&lt;/p&gt;&lt;p&gt;&lt;span style=&quot;white-space: pre;&quot;&gt;&#x9;&lt;/span&gt;-flavours&lt;br&gt;&lt;/p&gt;" style="text;html=1;strokeColor=none;fillColor=none;spacing=5;spacingTop=-20;whiteSpace=wrap;overflow=hidden;rounded=0;" parent="0n4ScGVHsQ4rE3W0SoDz-6" vertex="1">
          <mxGeometry x="20" y="20" width="210" height="300" as="geometry" />
        </mxCell>
        <mxCell id="C9zfe58r3XErGKjpOcmI-23" style="edgeStyle=orthogonalEdgeStyle;rounded=0;orthogonalLoop=1;jettySize=auto;html=1;exitX=0.5;exitY=1;exitDx=0;exitDy=0;entryX=0.5;entryY=0.978;entryDx=0;entryDy=0;entryPerimeter=0;" parent="0n4ScGVHsQ4rE3W0SoDz-6" source="C9zfe58r3XErGKjpOcmI-22" target="C9zfe58r3XErGKjpOcmI-22" edge="1">
          <mxGeometry relative="1" as="geometry" />
        </mxCell>
        <mxCell id="0n4ScGVHsQ4rE3W0SoDz-7" value="" style="group" parent="1" vertex="1" connectable="0">
          <mxGeometry x="360" y="540" width="250" height="410" as="geometry" />
        </mxCell>
        <mxCell id="0n4ScGVHsQ4rE3W0SoDz-8" value="" style="rounded=1;whiteSpace=wrap;html=1;" parent="0n4ScGVHsQ4rE3W0SoDz-7" vertex="1">
          <mxGeometry width="250" height="410" as="geometry" />
        </mxCell>
        <mxCell id="0n4ScGVHsQ4rE3W0SoDz-9" style="edgeStyle=orthogonalEdgeStyle;rounded=0;orthogonalLoop=1;jettySize=auto;html=1;exitX=0.5;exitY=1;exitDx=0;exitDy=0;entryX=0.5;entryY=0.978;entryDx=0;entryDy=0;entryPerimeter=0;" parent="0n4ScGVHsQ4rE3W0SoDz-7" source="0n4ScGVHsQ4rE3W0SoDz-8" target="0n4ScGVHsQ4rE3W0SoDz-8" edge="1">
          <mxGeometry relative="1" as="geometry" />
        </mxCell>
        <mxCell id="0n4ScGVHsQ4rE3W0SoDz-10" value="&lt;h1&gt;Order Items&lt;/h1&gt;&lt;p&gt;- ID&lt;/p&gt;&lt;p&gt;- OrderID&lt;/p&gt;&lt;p&gt;- ProductID&lt;/p&gt;&lt;p&gt;- Quantity&lt;/p&gt;&lt;p&gt;- Price&lt;/p&gt;&lt;p&gt;- Discount&lt;/p&gt;" style="text;html=1;strokeColor=none;fillColor=none;spacing=5;spacingTop=-20;whiteSpace=wrap;overflow=hidden;rounded=0;" parent="0n4ScGVHsQ4rE3W0SoDz-7" vertex="1">
          <mxGeometry x="20" y="19.46" width="210" height="380.54" as="geometry" />
        </mxCell>
        <mxCell id="0n4ScGVHsQ4rE3W0SoDz-11" value="" style="group" parent="1" vertex="1" connectable="0">
          <mxGeometry x="1350" y="660" width="250" height="315" as="geometry" />
        </mxCell>
        <mxCell id="0n4ScGVHsQ4rE3W0SoDz-12" value="" style="rounded=1;whiteSpace=wrap;html=1;" parent="0n4ScGVHsQ4rE3W0SoDz-11" vertex="1">
          <mxGeometry width="250" height="293.2758620689655" as="geometry" />
        </mxCell>
        <mxCell id="0n4ScGVHsQ4rE3W0SoDz-13" style="edgeStyle=orthogonalEdgeStyle;rounded=0;orthogonalLoop=1;jettySize=auto;html=1;exitX=0.5;exitY=1;exitDx=0;exitDy=0;entryX=0.5;entryY=0.978;entryDx=0;entryDy=0;entryPerimeter=0;" parent="0n4ScGVHsQ4rE3W0SoDz-11" source="0n4ScGVHsQ4rE3W0SoDz-12" target="0n4ScGVHsQ4rE3W0SoDz-12" edge="1">
          <mxGeometry relative="1" as="geometry" />
        </mxCell>
        <mxCell id="0n4ScGVHsQ4rE3W0SoDz-14" value="&lt;h1&gt;Flavour Components&lt;/h1&gt;&lt;p&gt;- FlavourID&lt;/p&gt;&lt;p&gt;- stockID&lt;/p&gt;&lt;p&gt;&lt;span style=&quot;background-color: initial;&quot;&gt;- weight/100g&lt;/span&gt;&lt;/p&gt;" style="text;html=1;strokeColor=none;fillColor=none;spacing=5;spacingTop=-20;whiteSpace=wrap;overflow=hidden;rounded=0;" parent="0n4ScGVHsQ4rE3W0SoDz-11" vertex="1">
          <mxGeometry x="20" y="21.724137931034484" width="210" height="293.2758620689655" as="geometry" />
        </mxCell>
        <mxCell id="0n4ScGVHsQ4rE3W0SoDz-15" value="" style="group" parent="1" vertex="1" connectable="0">
          <mxGeometry x="1040" y="980" width="250" height="315" as="geometry" />
        </mxCell>
        <mxCell id="0n4ScGVHsQ4rE3W0SoDz-16" value="" style="rounded=1;whiteSpace=wrap;html=1;" parent="0n4ScGVHsQ4rE3W0SoDz-15" vertex="1">
          <mxGeometry width="250" height="293.2758620689655" as="geometry" />
        </mxCell>
        <mxCell id="0n4ScGVHsQ4rE3W0SoDz-17" style="edgeStyle=orthogonalEdgeStyle;rounded=0;orthogonalLoop=1;jettySize=auto;html=1;exitX=0.5;exitY=1;exitDx=0;exitDy=0;entryX=0.5;entryY=0.978;entryDx=0;entryDy=0;entryPerimeter=0;" parent="0n4ScGVHsQ4rE3W0SoDz-15" source="0n4ScGVHsQ4rE3W0SoDz-16" target="0n4ScGVHsQ4rE3W0SoDz-16" edge="1">
          <mxGeometry relative="1" as="geometry" />
        </mxCell>
        <mxCell id="0n4ScGVHsQ4rE3W0SoDz-18" value="&lt;h1&gt;Flavours Category&lt;/h1&gt;&lt;p&gt;- ID&amp;nbsp;&lt;/p&gt;&lt;p&gt;- name&lt;/p&gt;&lt;p&gt;- description&lt;/p&gt;" style="text;html=1;strokeColor=none;fillColor=none;spacing=5;spacingTop=-20;whiteSpace=wrap;overflow=hidden;rounded=0;" parent="0n4ScGVHsQ4rE3W0SoDz-15" vertex="1">
          <mxGeometry x="20" y="21.724137931034484" width="210" height="293.2758620689655" as="geometry" />
        </mxCell>
        <mxCell id="0n4ScGVHsQ4rE3W0SoDz-20" value="" style="group" parent="1" vertex="1" connectable="0">
          <mxGeometry x="920" y="320" width="250" height="290" as="geometry" />
        </mxCell>
        <mxCell id="0n4ScGVHsQ4rE3W0SoDz-21" value="" style="rounded=1;whiteSpace=wrap;html=1;" parent="0n4ScGVHsQ4rE3W0SoDz-20" vertex="1">
          <mxGeometry width="250" height="270" as="geometry" />
        </mxCell>
        <mxCell id="0n4ScGVHsQ4rE3W0SoDz-22" style="edgeStyle=orthogonalEdgeStyle;rounded=0;orthogonalLoop=1;jettySize=auto;html=1;exitX=0.5;exitY=1;exitDx=0;exitDy=0;entryX=0.5;entryY=0.978;entryDx=0;entryDy=0;entryPerimeter=0;" parent="0n4ScGVHsQ4rE3W0SoDz-20" source="0n4ScGVHsQ4rE3W0SoDz-21" target="0n4ScGVHsQ4rE3W0SoDz-21" edge="1">
          <mxGeometry relative="1" as="geometry" />
        </mxCell>
        <mxCell id="0n4ScGVHsQ4rE3W0SoDz-23" value="&lt;h1&gt;Products Category&lt;/h1&gt;&lt;p&gt;- ID&lt;/p&gt;&lt;p&gt;- name&lt;/p&gt;&lt;p&gt;- description&lt;/p&gt;" style="text;html=1;strokeColor=none;fillColor=none;spacing=5;spacingTop=-20;whiteSpace=wrap;overflow=hidden;rounded=0;" parent="0n4ScGVHsQ4rE3W0SoDz-20" vertex="1">
          <mxGeometry x="20" y="20" width="210" height="270" as="geometry" />
        </mxCell>
        <mxCell id="0n4ScGVHsQ4rE3W0SoDz-25" value="" style="group" parent="1" vertex="1" connectable="0">
          <mxGeometry x="1210" y="50" width="250" height="290" as="geometry" />
        </mxCell>
        <mxCell id="0n4ScGVHsQ4rE3W0SoDz-26" value="" style="rounded=1;whiteSpace=wrap;html=1;" parent="0n4ScGVHsQ4rE3W0SoDz-25" vertex="1">
          <mxGeometry width="250" height="270" as="geometry" />
        </mxCell>
        <mxCell id="0n4ScGVHsQ4rE3W0SoDz-27" style="edgeStyle=orthogonalEdgeStyle;rounded=0;orthogonalLoop=1;jettySize=auto;html=1;exitX=0.5;exitY=1;exitDx=0;exitDy=0;entryX=0.5;entryY=0.978;entryDx=0;entryDy=0;entryPerimeter=0;" parent="0n4ScGVHsQ4rE3W0SoDz-25" source="0n4ScGVHsQ4rE3W0SoDz-26" target="0n4ScGVHsQ4rE3W0SoDz-26" edge="1">
          <mxGeometry relative="1" as="geometry" />
        </mxCell>
        <mxCell id="0n4ScGVHsQ4rE3W0SoDz-28" value="&lt;h1&gt;Product Components&lt;/h1&gt;&lt;p&gt;- productID&lt;br&gt;&lt;/p&gt;&lt;p&gt;- stockID&lt;/p&gt;" style="text;html=1;strokeColor=none;fillColor=none;spacing=5;spacingTop=-20;whiteSpace=wrap;overflow=hidden;rounded=0;" parent="0n4ScGVHsQ4rE3W0SoDz-25" vertex="1">
          <mxGeometry x="20" y="20" width="210" height="270" as="geometry" />
        </mxCell>
        <mxCell id="0n4ScGVHsQ4rE3W0SoDz-30" value="To include delivery as products" style="text;html=1;strokeColor=none;fillColor=none;align=center;verticalAlign=middle;whiteSpace=wrap;rounded=0;" parent="1" vertex="1">
          <mxGeometry x="827" y="100" width="60" height="90" as="geometry" />
        </mxCell>
        <mxCell id="0n4ScGVHsQ4rE3W0SoDz-31" value="" style="group" parent="1" vertex="1" connectable="0">
          <mxGeometry x="90" y="960" width="250" height="200" as="geometry" />
        </mxCell>
        <mxCell id="0n4ScGVHsQ4rE3W0SoDz-32" value="" style="rounded=1;whiteSpace=wrap;html=1;" parent="0n4ScGVHsQ4rE3W0SoDz-31" vertex="1">
          <mxGeometry width="250" height="200" as="geometry" />
        </mxCell>
        <mxCell id="0n4ScGVHsQ4rE3W0SoDz-33" style="edgeStyle=orthogonalEdgeStyle;rounded=0;orthogonalLoop=1;jettySize=auto;html=1;exitX=0.5;exitY=1;exitDx=0;exitDy=0;entryX=0.5;entryY=0.978;entryDx=0;entryDy=0;entryPerimeter=0;" parent="0n4ScGVHsQ4rE3W0SoDz-31" source="0n4ScGVHsQ4rE3W0SoDz-32" target="0n4ScGVHsQ4rE3W0SoDz-32" edge="1">
          <mxGeometry relative="1" as="geometry" />
        </mxCell>
        <mxCell id="0n4ScGVHsQ4rE3W0SoDz-34" value="&lt;h1&gt;Order Status&lt;/h1&gt;&lt;p&gt;- ID&lt;/p&gt;&lt;p&gt;- name&lt;br&gt;&lt;/p&gt;&lt;p&gt;- description&lt;/p&gt;" style="text;html=1;strokeColor=none;fillColor=none;spacing=5;spacingTop=-20;whiteSpace=wrap;overflow=hidden;rounded=0;" parent="0n4ScGVHsQ4rE3W0SoDz-31" vertex="1">
          <mxGeometry x="20" y="9.492682926829268" width="210" height="185.62926829268292" as="geometry" />
        </mxCell>
      </root>
    </mxGraphModel>
  </diagram>
</mxfile>
